#!OML:ASF F:\VICON\USERDATA\INSTALL\rory3\rory3.ASF
:FULLY-SPECIFIED
:DEGREES
548
root -0.126538 16.525 12.5446 -154.968 -21.1812 -186.743
lowerback -10.2538 -1.6066 1.53674
upperback -8.6198 -3.27338 -2.21533
thorax -3.4792 -2.21532 -3.36713
lowerneck -11.5554 -10.4834 -13.4285
upperneck 27.962 -18.0535 10.9298
head 13.6299 -8.94484 3.33282
rclavicle 9.31803e-017 2.98177e-016
rhumerus 360.526 -20.1905 -373.954
rradius 19.4282
rwrist 1.09281
rhand -6.48471 5.16049
rfingers 7.12502
rthumb 19.3663 -23.8951
lclavicle 9.31803e-017 2.98177e-016
lhumerus 4.64133 8.17636 11.3745
lradius 18.5684
lwrist -43.1786
lhand 2.65453 24.6419
lfingers 7.12502
lthumb 28.1304 52.5519
rfemur -56.2292 -11.3265 31.4272
rtibia 47.3235
rfoot -43.0092 -36.3625
rtoes 48.2043
lfemur -2.71835 3.9266 -7.58778
ltibia 30.4982
lfoot 26.3274 8.10111
ltoes -24.6225
549
root -0.101427 16.5396 12.4529 -155.736 -19.9313 -186.822
lowerback -9.24775 -1.90617 1.10393
upperback -8.95606 -3.7057 -2.31165
thorax -4.4023 -2.44726 -3.18074
lowerneck -11.2108 -9.77598 -13.1242
upperneck 28.6023 -17.4124 10.8558
head 13.6825 -8.73605 3.40178
rclavicle 3.46291e-014 1.75427e-014
rhumerus 359.32 -20.5033 -372.81
rradius 19.0871
rwrist 3.56793
rhand -6.25256 5.3176
rfingers 7.12502
rthumb 19.5896 -23.7155
lclavicle 3.46291e-014 1.75427e-014
lhumerus 4.58947 7.4381 11.2892
lradius 18.5263
lwrist -44.9597
lhand 1.75706 22.6133
lfingers 7.12502
lthumb 27.2722 50.6612
rfemur -54.8106 -10.1817 30.5986
rtibia 47.2167
rfoot -43.7242 -35.8431
rtoes 48.833
lfemur -2.4029 2.76829 -6.85929
ltibia 30.594
lfoot 24.6345 7.28799
ltoes -29.2791
550
root -0.0751904 16.5432 12.3627 -156.452 -18.6506 -186.832
lowerback -9.21304 -2.15656 0.533276
upperback -8.7651 -3.99619 -2.35992
thorax -4.20232 -2.55515 -2.93094
lowerneck -10.6777 -9.25207 -12.8983
upperneck 28.6057 -16.9485 11.0799
head 13.4958 -8.56325 3.57234
rclavicle 3.04205e-014 -1.66979e-014
rhumerus 358.146 -20.6845 -371.535
rradius 18.9646
rwrist 4.87716
rhand -6.10178 5.32476
rfingers 7.12502
rthumb 19.7345 -23.6935
lclavicle 3.04205e-014 -1.66979e-014
lhumerus 4.75695 4.78694 11.0468
lradius 19.0369
lwrist -43.6098
lhand 1.61545 22.4538
lfingers 7.12502
lthumb 27.1368 50.523
rfemur -53.4897 -9.13099 30.1295
rtibia 47.0546
rfoot -44.0508 -35.6071
rtoes 48.9635
lfemur -2.03436 1.70967 -6.0551
ltibia 30.3089
lfoot 22.1837 8.04441
ltoes -27.4369
551
root -0.0547966 16.5534 12.2733 -157.207 -17.5407 -186.775
lowerback -9.01698 -2.41131 0.259265
upperback -8.72668 -4.33961 -2.46208
thorax -4.27962 -2.72124 -2.88907
lowerneck -9.90752 -8.62657 -12.5588
upperneck 28.6649 -16.4301 11.2685
head 13.257 -8.3874 3.72808
rclavicle 1.65271e-014 -1.49089e-015
rhumerus 356.896 -20.9804 -370.349
rradius 18.8717
rwrist 6.35649
rhand -5.79025 5.54564
rfingers 7.12502
rthumb 20.034 -23.4415
lclavicle 1.65271e-014 -1.49089e-015
lhumerus 5.00472 0.869239 10.7132
lradius 19.8048
lwrist -40.0012
lhand 2.62384 24.8312
lfingers 7.12502
lthumb 28.1011 52.746
rfemur -52.0868 -8.48025 29.9314
rtibia 46.7433
rfoot -44.0976 -35.345
rtoes 48.8678
lfemur -1.64014 0.658788 -5.14307
ltibia 29.6377
lfoot 18.9941 9.94336
ltoes -22.2209
552
root -0.0229554 16.5704 12.187 -157.87 -16.3966 -186.657
lowerback -8.72954 -2.68901 -0.0400575
upperback -8.79749 -4.73546 -2.52745
thorax -4.52066 -2.91968 -2.78386
lowerneck -9.48034 -7.91384 -12.0333
upperneck 29.0239 -15.7653 11.2377
head 13.1543 -8.13809 3.77256
rclavicle -4.29437e-014 -2.36554e-014
rhumerus 355.699 -20.5156 -369.253
rradius 18.99
rwrist 7.01924
rhand -5.41907 5.74863
rfingers 7.12502
rthumb 20.3907 -23.2008
lclavicle -4.29437e-014 -2.36554e-014
lhumerus 5.12874 -0.29037 10.6766
lradius 19.7675
lwrist -39.9323
lhand 2.88355 24.0523
lfingers 7.12502
lthumb 28.3493 51.926
rfemur -50.7372 -7.50866 29.6257
rtibia 46.2446
rfoot -44.2044 -35.1606
rtoes 48.8827
lfemur -1.51105 -0.155491 -4.15083
ltibia 28.8051
lfoot 16.1869 10.8244
ltoes -23.9295
553
root 0.015471 16.5882 12.1074 -158.297 -15.0234 -186.682
lowerback -8.64426 -2.93263 -0.536562
upperback -8.71782 -5.05864 -2.65952
thorax -4.47332 -3.06576 -2.65558
lowerneck -9.68247 -7.34148 -11.386
upperneck 29.4196 -15.2305 11.2537
head 13.2211 -7.87631 3.75693
rclavicle 1.93753e-014 -7.55382e-015
rhumerus 354.689 -21.0108 -368.398
rradius 18.9955
rwrist 7.82582
rhand -5.08941 6.3115
rfingers 7.12502
rthumb 20.7075 -22.6037
lclavicle 1.93753e-014 -7.55382e-015
lhumerus 5.32045 -1.79654 10.5462
lradius 20.1491
lwrist -37.9227
lhand 3.80526 24.3532
lfingers 7.12502
lthumb 29.2298 52.0772
rfemur -49.6717 -6.31991 29.0965
rtibia 45.6398
rfoot -43.5217 -35.5816
rtoes 48.521
lfemur -1.543 -0.734726 -3.42134
ltibia 27.7686
lfoot 12.4059 13.2564
ltoes -20.0349
554
root 0.0446535 16.6115 12.0324 -158.68 -13.5729 -186.697
lowerback -8.67461 -3.1434 -0.940947
upperback -8.64692 -5.34338 -2.75915
thorax -4.37147 -3.19911 -2.5522
lowerneck -9.59784 -6.81343 -10.9561
upperneck 29.6069 -14.7376 11.3586
head 13.1767 -7.65821 3.81433
rclavicle -2.5755e-014 -3.1408e-014
rhumerus 353.779 -21.5158 -367.456
rradius 18.96
rwrist 8.26267
rhand -4.97155 6.62648
rfingers 7.12502
rthumb 20.8207 -22.2764
lclavicle -2.5755e-014 -3.1408e-014
lhumerus 5.33451 -3.13432 10.5541
lradius 20.5207
lwrist -35.703
lhand 4.91716 24.5892
lfingers 7.12502
lthumb 30.291 52.1234
rfemur -48.6811 -5.4523 28.7484
rtibia 44.9946
rfoot -42.1505 -36.1709
rtoes 47.7194
lfemur -1.70724 -1.21709 -2.82656
ltibia 26.8416
lfoot 6.969 16.3519
ltoes -10.4845
555
root 0.0754769 16.6323 11.947 -159.211 -12.4863 -187.029
lowerback -8.48945 -3.5061 -1.63831
upperback -8.66181 -5.84457 -2.8961
thorax -4.46517 -3.4329 -2.31354
lowerneck -9.27313 -6.21072 -10.4243
upperneck 29.8942 -14.1627 11.2436
head 13.0827 -7.44179 3.78918
rclavicle 4.18939e-014 -8.74653e-015
rhumerus 352.757 -21.8433 -366.298
rradius 18.9119
rwrist 8.60658
rhand -4.72956 6.86664
rfingers 7.12502
rthumb 21.0532 -22.0105
lclavicle 4.18939e-014 -8.74653e-015
lhumerus 5.25442 -3.39971 10.9531
lradius 20.5881
lwrist -34.719
lhand 5.89232 24.7964
lfingers 7.12502
lthumb 31.2207 52.1556
rfemur -47.3396 -4.99696 28.3166
rtibia 44.393
rfoot -41.8283 -36.1117
rtoes 47.3671
lfemur -1.76392 -2.10778 -2.41969
ltibia 25.7489
lfoot -1.14023 19.1791
ltoes 7.14162
556
root 0.100727 16.6427 11.8883 -158.967 -10.0742 -187.127
lowerback -8.84526 -3.36041 -2.18534
upperback -9.09527 -5.79341 -3.11195
thorax -4.71398 -3.45321 -2.23787
lowerneck -8.99459 -9.51853 -9.14748
upperneck 31.354 -12.16 9.37466
head 13.2047 -4.31366 3.69956
rclavicle -6.95746e-016 7.95139e-015
rhumerus 351.783 -22.9084 -365.156
rradius 18.6869
rwrist 9.56149
rhand -4.50398 7.4208
rfingers 7.12502
rthumb 21.2699 -21.4321
lclavicle -6.95746e-016 7.95139e-015
lhumerus 5.1652 -2.8148 11.5675
lradius 20.6683
lwrist -33.8063
lhand 6.57004 25.3224
lfingers 7.12502
lthumb 31.8663 52.555
rfemur -47.1148 -3.55917 27.8672
rtibia 43.8472
rfoot -40.7867 -35.9121
rtoes 47.0242
lfemur -2.57872 -2.11552 -2.46879
ltibia 25.0402
lfoot -12.1151 19.2009
ltoes 25.7839
557
root 0.143668 16.6755 11.7951 -159.452 -8.58079 -187.44
lowerback -8.76242 -3.56717 -3.00411
upperback -9.19273 -6.11525 -3.2416
thorax -4.81892 -3.60088 -1.9227
lowerneck -8.78528 -9.10989 -8.75702
upperneck 31.8236 -11.5552 9.19663
head 13.2412 -3.98858 3.69071
rclavicle 2.04997e-014 -1.70955e-014
rhumerus 350.964 -24.3966 -363.894
rradius 18.3633
rwrist 10.7664
rhand -4.33869 8.15212
rfingers 7.12502
rthumb 21.4287 -20.6828
lclavicle 2.04997e-014 -1.70955e-014
lhumerus 5.01847 -1.66463 12.5355
lradius 20.6668
lwrist -33.3611
lhand 6.56039 24.9882
lfingers 7.12502
lthumb 31.8571 52.2227
rfemur -45.9114 -2.53926 27.1754
rtibia 43.2004
rfoot -40.6023 -35.9384
rtoes 46.868
lfemur -3.04607 -3.00252 -2.30582
ltibia 24.3134
lfoot -20.636 18.0096
ltoes 33.0131
